<?xml version="1.0" encoding="utf-8"?>
<!-- Generator: Adobe Illustrator 19.2.1, SVG Export Plug-In . SVG Version: 6.00 Build 0)  -->
<svg version="1.1" id="layer" xmlns="http://www.w3.org/2000/svg" xmlns:xlink="http://www.w3.org/1999/xlink" x="0px" y="0px"
	 viewBox="0 0 652 652" style="enable-background:new 0 0 652 652;" xml:space="preserve">
<style type="text/css">
	.st0{fill:#FFE400;}
	.st1{fill-rule:evenodd;clip-rule:evenodd;fill:#006CB2;}
</style>
<rect x="26.6" y="290.2" class="st0" width="600" height="74.2"/>
<path class="st1" d="M524.4,314.3l-1.7,6.4h19.9l-23.1,13l-3.6,13.6h57.9l17.5-12.9h-35.6l25-12.9l1.8-7.2H524.4z M513.1,300.5
	l-34.6,20.4l8.4,0l-6.8,26.4h21.1l17.9-12.9h-14.9l3.8-13.6l10.8,0l1.4-6.4h-10.5L513.1,300.5z M435.4,320.9l14.5,0l-0.7,3.8h-14.7
	L435.4,320.9z M355.2,326.7l-1.5,6.2h20.2l1.4-6.2H355.2z M358.8,313l-1.5,6h20l1.3-6H358.8z M246.5,301.5l-12,45.7h21.1l17.4-12.8
	h-14.6l9.4-32.9H246.5z M210.3,301.5l-12,45.7h21.1l17.4-12.8h-14.6l9.4-32.9H210.3z M169.8,314.3l-8.5,32.9h21.6l17.7-12.8h-14.8
	l5.2-20.1H169.8z M173.3,301l-1.9,7.4h21.2l1.9-7.4H173.3z M67.7,301.5l-12,45.7H79l34.2-32.6l-8.5,32.6h41.4l17.5-12.8h-25.9
	l33.6-32.9h-15.4L132,324.6l5.1-23.1h-29l-23.3,23.1l7.4-23.1H67.7z M338.8,301.2l-12,45.9l66.4,0l17.3-12.8h-14.6l3.2-11.2l-9.4,0
	l11.8-8.9l3.4-13.1H338.8z M416.1,314.3l57.6,0l-4,16.2h-36.6l-1.1,3.9H483l-17.9,12.9h-57.6L416.1,314.3z M279.5,314.3l-8.6,32.9
	h21.6l17.7-12.8h-14.8l5.3-20.1H279.5z M282.9,301.2l-1.9,7.4h21.2l1.9-7.4H282.9z"/>
</svg>
